<svg width="200" height="60" viewBox="0 0 200 60" fill="currentColor" xmlns="http://www.w3.org/2000/svg">
  <!-- 5 -->
  <path d="M10 14h34v10H18v8c0 0 2 0 4 0 16 0 23 8 23 18c0 9-6 16-20 16-8 0-14-3-14-3v-9s5 3 13 3c6 0 10-3 10-7s-4-8-12-8h-12V14z"/>

  <!-- D -->
  <path d="M55 14h18c14 0 24 9 24 23s-10 23-24 23H55V14zm12 36h6c7 0 12-5 12-13s-5-13-12-13h-6v26z"/>

  <!-- M -->
  <path d="M110 54V14h12l10 26 10-26h12v40h-11V28l-11 26h-8l-11-26v26h-11z"/>

  <!-- Dot -->
  <circle cx="170" cy="18" r="6"/>
</svg>
